<mxfile host="app.diagrams.net" modified="2023-05-31T19:16:46.132Z" agent="Mozilla/5.0 (Windows NT 10.0; Win64; x64) AppleWebKit/537.36 (KHTML, like Gecko) Chrome/113.0.0.0 Safari/537.36" etag="tcrDMcX87KJ3y6zw7fhi" version="21.3.5" type="device">
  <diagram name="Σελίδα-1" id="yKqg7htoaBlA1m7nzF3V">
    <mxGraphModel dx="819" dy="437" grid="1" gridSize="10" guides="1" tooltips="1" connect="1" arrows="1" fold="1" page="1" pageScale="1" pageWidth="827" pageHeight="1169" math="0" shadow="0">
      <root>
        <mxCell id="0" />
        <mxCell id="1" parent="0" />
        <mxCell id="Jm3S8WH3au0bVHizz8CZ-1" value="person" style="swimlane;whiteSpace=wrap;html=1;" parent="1" vertex="1">
          <mxGeometry x="41.68" y="160" width="120" height="150" as="geometry" />
        </mxCell>
        <mxCell id="Jm3S8WH3au0bVHizz8CZ-3" value="&lt;blockquote style=&quot;margin: 0 0 0 40px; border: none; padding: 0px;&quot;&gt;pid&lt;/blockquote&gt;" style="text;html=1;strokeColor=none;fillColor=none;align=left;verticalAlign=middle;whiteSpace=wrap;rounded=0;" parent="Jm3S8WH3au0bVHizz8CZ-1" vertex="1">
          <mxGeometry y="30" width="120" height="30" as="geometry" />
        </mxCell>
        <mxCell id="Jm3S8WH3au0bVHizz8CZ-5" value="&lt;blockquote style=&quot;margin: 0 0 0 40px; border: none; padding: 0px;&quot;&gt;pname&lt;/blockquote&gt;" style="text;html=1;strokeColor=none;fillColor=none;align=left;verticalAlign=middle;whiteSpace=wrap;rounded=0;" parent="Jm3S8WH3au0bVHizz8CZ-1" vertex="1">
          <mxGeometry y="60" width="120" height="30" as="geometry" />
        </mxCell>
        <mxCell id="Jm3S8WH3au0bVHizz8CZ-6" value="&lt;blockquote style=&quot;margin: 0 0 0 40px; border: none; padding: 0px;&quot;&gt;age&lt;/blockquote&gt;" style="text;html=1;strokeColor=none;fillColor=none;align=left;verticalAlign=middle;whiteSpace=wrap;rounded=0;" parent="Jm3S8WH3au0bVHizz8CZ-1" vertex="1">
          <mxGeometry y="90" width="120" height="30" as="geometry" />
        </mxCell>
        <mxCell id="Jm3S8WH3au0bVHizz8CZ-7" value="&lt;blockquote style=&quot;margin: 0 0 0 40px; border: none; padding: 0px;&quot;&gt;gender&lt;/blockquote&gt;" style="text;html=1;strokeColor=none;fillColor=none;align=left;verticalAlign=middle;whiteSpace=wrap;rounded=0;" parent="Jm3S8WH3au0bVHizz8CZ-1" vertex="1">
          <mxGeometry y="120" width="120" height="30" as="geometry" />
        </mxCell>
        <mxCell id="Jm3S8WH3au0bVHizz8CZ-8" value="" style="image;sketch=0;aspect=fixed;html=1;points=[];align=center;fontSize=12;image=img/lib/mscae/Key.svg;" parent="Jm3S8WH3au0bVHizz8CZ-1" vertex="1">
          <mxGeometry x="10" y="37.5" width="9.3" height="15" as="geometry" />
        </mxCell>
        <mxCell id="Jm3S8WH3au0bVHizz8CZ-9" value="card" style="swimlane;whiteSpace=wrap;html=1;" parent="1" vertex="1">
          <mxGeometry x="41.68000000000001" y="360" width="120" height="120" as="geometry" />
        </mxCell>
        <mxCell id="Jm3S8WH3au0bVHizz8CZ-11" value="&lt;blockquote style=&quot;margin: 0 0 0 40px; border: none; padding: 0px;&quot;&gt;cardno&lt;/blockquote&gt;" style="text;html=1;strokeColor=none;fillColor=none;align=left;verticalAlign=middle;whiteSpace=wrap;rounded=0;" parent="Jm3S8WH3au0bVHizz8CZ-9" vertex="1">
          <mxGeometry y="30" width="120" height="30" as="geometry" />
        </mxCell>
        <mxCell id="Jm3S8WH3au0bVHizz8CZ-12" value="&lt;blockquote style=&quot;margin: 0 0 0 40px; border: none; padding: 0px;&quot;&gt;card_type&lt;/blockquote&gt;" style="text;html=1;strokeColor=none;fillColor=none;align=left;verticalAlign=middle;whiteSpace=wrap;rounded=0;" parent="Jm3S8WH3au0bVHizz8CZ-9" vertex="1">
          <mxGeometry y="60" width="120" height="30" as="geometry" />
        </mxCell>
        <mxCell id="Jm3S8WH3au0bVHizz8CZ-13" value="&lt;blockquote style=&quot;margin: 0 0 0 40px; border: none; padding: 0px;&quot;&gt;card_brand&lt;/blockquote&gt;" style="text;html=1;strokeColor=none;fillColor=none;align=left;verticalAlign=middle;whiteSpace=wrap;rounded=0;" parent="Jm3S8WH3au0bVHizz8CZ-9" vertex="1">
          <mxGeometry y="90" width="120" height="30" as="geometry" />
        </mxCell>
        <mxCell id="Jm3S8WH3au0bVHizz8CZ-15" value="" style="image;sketch=0;aspect=fixed;html=1;points=[];align=center;fontSize=12;image=img/lib/mscae/Key.svg;" parent="Jm3S8WH3au0bVHizz8CZ-9" vertex="1">
          <mxGeometry x="20" y="37.5" width="9.3" height="15" as="geometry" />
        </mxCell>
        <mxCell id="Jm3S8WH3au0bVHizz8CZ-16" value="transaction" style="swimlane;whiteSpace=wrap;html=1;" parent="1" vertex="1">
          <mxGeometry x="380" y="190" width="120" height="200" as="geometry" />
        </mxCell>
        <mxCell id="Jm3S8WH3au0bVHizz8CZ-18" value="&lt;blockquote style=&quot;margin: 0 0 0 40px; border: none; padding: 0px;&quot;&gt;cardno&lt;/blockquote&gt;" style="text;html=1;strokeColor=none;fillColor=none;align=left;verticalAlign=middle;whiteSpace=wrap;rounded=0;" parent="Jm3S8WH3au0bVHizz8CZ-16" vertex="1">
          <mxGeometry y="52.5" width="120" height="30" as="geometry" />
        </mxCell>
        <mxCell id="Jm3S8WH3au0bVHizz8CZ-19" value="&lt;blockquote style=&quot;margin: 0 0 0 40px; border: none; padding: 0px;&quot;&gt;time_key&lt;/blockquote&gt;" style="text;html=1;strokeColor=none;fillColor=none;align=left;verticalAlign=middle;whiteSpace=wrap;rounded=0;" parent="Jm3S8WH3au0bVHizz8CZ-16" vertex="1">
          <mxGeometry y="80" width="120" height="30" as="geometry" />
        </mxCell>
        <mxCell id="Jm3S8WH3au0bVHizz8CZ-22" value="" style="image;sketch=0;aspect=fixed;html=1;points=[];align=center;fontSize=12;image=img/lib/mscae/Key.svg;" parent="Jm3S8WH3au0bVHizz8CZ-16" vertex="1">
          <mxGeometry x="20" y="60" width="9.3" height="15" as="geometry" />
        </mxCell>
        <mxCell id="Jm3S8WH3au0bVHizz8CZ-23" value="&lt;blockquote style=&quot;margin: 0 0 0 40px; border: none; padding: 0px;&quot;&gt;ttc&lt;/blockquote&gt;" style="text;html=1;strokeColor=none;fillColor=none;align=left;verticalAlign=middle;whiteSpace=wrap;rounded=0;" parent="Jm3S8WH3au0bVHizz8CZ-16" vertex="1">
          <mxGeometry y="110" width="120" height="30" as="geometry" />
        </mxCell>
        <mxCell id="Jm3S8WH3au0bVHizz8CZ-25" value="&lt;blockquote style=&quot;margin: 0 0 0 40px; border: none; padding: 0px;&quot;&gt;mmc&lt;/blockquote&gt;" style="text;html=1;strokeColor=none;fillColor=none;align=left;verticalAlign=middle;whiteSpace=wrap;rounded=0;" parent="Jm3S8WH3au0bVHizz8CZ-16" vertex="1">
          <mxGeometry y="140" width="120" height="30" as="geometry" />
        </mxCell>
        <mxCell id="Jm3S8WH3au0bVHizz8CZ-54" value="" style="image;sketch=0;aspect=fixed;html=1;points=[];align=center;fontSize=12;image=img/lib/mscae/Key.svg;" parent="Jm3S8WH3au0bVHizz8CZ-16" vertex="1">
          <mxGeometry x="20" y="87.5" width="9.3" height="15" as="geometry" />
        </mxCell>
        <mxCell id="Jm3S8WH3au0bVHizz8CZ-55" value="&lt;blockquote style=&quot;margin: 0 0 0 40px; border: none; padding: 0px;&quot;&gt;pid&lt;/blockquote&gt;" style="text;html=1;strokeColor=none;fillColor=none;align=left;verticalAlign=middle;whiteSpace=wrap;rounded=0;" parent="Jm3S8WH3au0bVHizz8CZ-16" vertex="1">
          <mxGeometry y="22.5" width="120" height="30" as="geometry" />
        </mxCell>
        <mxCell id="Jm3S8WH3au0bVHizz8CZ-56" value="" style="image;sketch=0;aspect=fixed;html=1;points=[];align=center;fontSize=12;image=img/lib/mscae/Key.svg;" parent="Jm3S8WH3au0bVHizz8CZ-16" vertex="1">
          <mxGeometry x="20" y="30" width="9.3" height="15" as="geometry" />
        </mxCell>
        <mxCell id="Jm3S8WH3au0bVHizz8CZ-73" value="" style="image;sketch=0;aspect=fixed;html=1;points=[];align=center;fontSize=12;image=img/lib/mscae/Key.svg;" parent="Jm3S8WH3au0bVHizz8CZ-16" vertex="1">
          <mxGeometry x="20" y="117.5" width="9.3" height="15" as="geometry" />
        </mxCell>
        <mxCell id="Jm3S8WH3au0bVHizz8CZ-74" value="" style="image;sketch=0;aspect=fixed;html=1;points=[];align=center;fontSize=12;image=img/lib/mscae/Key.svg;" parent="Jm3S8WH3au0bVHizz8CZ-16" vertex="1">
          <mxGeometry x="20" y="147.5" width="9.3" height="15" as="geometry" />
        </mxCell>
        <mxCell id="Jm3S8WH3au0bVHizz8CZ-20" value="&lt;blockquote style=&quot;margin: 0 0 0 40px; border: none; padding: 0px;&quot;&gt;amount&lt;/blockquote&gt;" style="text;html=1;strokeColor=none;fillColor=none;align=left;verticalAlign=middle;whiteSpace=wrap;rounded=0;" parent="Jm3S8WH3au0bVHizz8CZ-16" vertex="1">
          <mxGeometry y="170" width="120" height="30" as="geometry" />
        </mxCell>
        <mxCell id="Jm3S8WH3au0bVHizz8CZ-26" value="transactioninfo" style="swimlane;whiteSpace=wrap;html=1;" parent="1" vertex="1">
          <mxGeometry x="640" y="152.50000000000006" width="120" height="90" as="geometry" />
        </mxCell>
        <mxCell id="Jm3S8WH3au0bVHizz8CZ-27" value="&lt;blockquote style=&quot;margin: 0 0 0 40px; border: none; padding: 0px;&quot;&gt;ttc&lt;/blockquote&gt;" style="text;html=1;strokeColor=none;fillColor=none;align=left;verticalAlign=middle;whiteSpace=wrap;rounded=0;" parent="Jm3S8WH3au0bVHizz8CZ-26" vertex="1">
          <mxGeometry y="30" width="120" height="30" as="geometry" />
        </mxCell>
        <mxCell id="Jm3S8WH3au0bVHizz8CZ-28" value="&lt;blockquote style=&quot;margin: 0 0 0 40px; border: none; padding: 0px;&quot;&gt;trans_type&lt;/blockquote&gt;" style="text;html=1;strokeColor=none;fillColor=none;align=left;verticalAlign=middle;whiteSpace=wrap;rounded=0;" parent="Jm3S8WH3au0bVHizz8CZ-26" vertex="1">
          <mxGeometry y="60" width="120" height="30" as="geometry" />
        </mxCell>
        <mxCell id="Jm3S8WH3au0bVHizz8CZ-65" value="" style="image;sketch=0;aspect=fixed;html=1;points=[];align=center;fontSize=12;image=img/lib/mscae/Key.svg;" parent="Jm3S8WH3au0bVHizz8CZ-26" vertex="1">
          <mxGeometry x="20" y="37.49999999999994" width="9.3" height="15" as="geometry" />
        </mxCell>
        <mxCell id="Jm3S8WH3au0bVHizz8CZ-33" value="city" style="swimlane;whiteSpace=wrap;html=1;" parent="1" vertex="1">
          <mxGeometry x="640" y="362.5" width="140" height="90" as="geometry" />
        </mxCell>
        <mxCell id="Jm3S8WH3au0bVHizz8CZ-34" value="&lt;blockquote style=&quot;margin: 0 0 0 40px; border: none; padding: 0px;&quot;&gt;mcc&lt;/blockquote&gt;" style="text;html=1;strokeColor=none;fillColor=none;align=left;verticalAlign=middle;whiteSpace=wrap;rounded=0;" parent="Jm3S8WH3au0bVHizz8CZ-33" vertex="1">
          <mxGeometry y="30" width="120" height="30" as="geometry" />
        </mxCell>
        <mxCell id="Jm3S8WH3au0bVHizz8CZ-35" value="&lt;blockquote style=&quot;margin: 0 0 0 40px; border: none; padding: 0px;&quot;&gt;mercahnt_city&lt;/blockquote&gt;" style="text;html=1;strokeColor=none;fillColor=none;align=left;verticalAlign=middle;whiteSpace=wrap;rounded=0;" parent="Jm3S8WH3au0bVHizz8CZ-33" vertex="1">
          <mxGeometry y="60" width="120" height="30" as="geometry" />
        </mxCell>
        <mxCell id="Jm3S8WH3au0bVHizz8CZ-36" value="" style="image;sketch=0;aspect=fixed;html=1;points=[];align=center;fontSize=12;image=img/lib/mscae/Key.svg;" parent="Jm3S8WH3au0bVHizz8CZ-33" vertex="1">
          <mxGeometry x="20" y="37.5" width="9.3" height="15" as="geometry" />
        </mxCell>
        <mxCell id="Jm3S8WH3au0bVHizz8CZ-38" value="" style="image;sketch=0;aspect=fixed;html=1;points=[];align=center;fontSize=12;image=img/lib/mscae/Key.svg;rotation=90;" parent="1" vertex="1">
          <mxGeometry x="177.03" y="197.5" width="9.3" height="15" as="geometry" />
        </mxCell>
        <mxCell id="Jm3S8WH3au0bVHizz8CZ-43" value="" style="image;sketch=0;aspect=fixed;html=1;points=[];align=center;fontSize=12;image=img/lib/mscae/Key.svg;rotation=90;" parent="1" vertex="1">
          <mxGeometry x="171.68" y="400" width="9.3" height="15" as="geometry" />
        </mxCell>
        <mxCell id="Jm3S8WH3au0bVHizz8CZ-57" value="" style="endArrow=none;html=1;rounded=0;exitX=0.481;exitY=-0.048;exitDx=0;exitDy=0;exitPerimeter=0;entryX=0.42;entryY=0.015;entryDx=0;entryDy=0;entryPerimeter=0;" parent="1" source="Jm3S8WH3au0bVHizz8CZ-38" target="Jm3S8WH3au0bVHizz8CZ-58" edge="1">
          <mxGeometry width="50" height="50" relative="1" as="geometry">
            <mxPoint x="340" y="360" as="sourcePoint" />
            <mxPoint x="350" y="230" as="targetPoint" />
            <Array as="points">
              <mxPoint x="280" y="205" />
              <mxPoint x="280" y="220" />
              <mxPoint x="280" y="230" />
            </Array>
          </mxGeometry>
        </mxCell>
        <mxCell id="Jm3S8WH3au0bVHizz8CZ-58" value="8" style="text;html=1;align=center;verticalAlign=middle;resizable=0;points=[];autosize=1;strokeColor=none;fillColor=none;rotation=-90;" parent="1" vertex="1">
          <mxGeometry x="354" y="212.5" width="30" height="30" as="geometry" />
        </mxCell>
        <mxCell id="Jm3S8WH3au0bVHizz8CZ-59" value="8" style="text;html=1;align=center;verticalAlign=middle;resizable=0;points=[];autosize=1;strokeColor=none;fillColor=none;rotation=-90;" parent="1" vertex="1">
          <mxGeometry x="350" y="242.5" width="30" height="30" as="geometry" />
        </mxCell>
        <mxCell id="Jm3S8WH3au0bVHizz8CZ-61" value="" style="endArrow=none;html=1;rounded=0;entryX=0.494;entryY=0.011;entryDx=0;entryDy=0;entryPerimeter=0;" parent="1" source="Jm3S8WH3au0bVHizz8CZ-71" edge="1">
          <mxGeometry width="50" height="50" relative="1" as="geometry">
            <mxPoint x="523.1099999999999" y="369.33039999999994" as="sourcePoint" />
            <mxPoint x="610.33" y="407.67999999999995" as="targetPoint" />
            <Array as="points">
              <mxPoint x="560" y="348" />
              <mxPoint x="560" y="408" />
            </Array>
          </mxGeometry>
        </mxCell>
        <mxCell id="Jm3S8WH3au0bVHizz8CZ-62" value="" style="endArrow=none;html=1;rounded=0;entryX=0.402;entryY=0.01;entryDx=0;entryDy=0;entryPerimeter=0;" parent="1" target="Jm3S8WH3au0bVHizz8CZ-59" edge="1">
          <mxGeometry width="50" height="50" relative="1" as="geometry">
            <mxPoint x="190" y="410" as="sourcePoint" />
            <mxPoint x="330" y="130" as="targetPoint" />
            <Array as="points">
              <mxPoint x="280" y="410" />
              <mxPoint x="280" y="260" />
            </Array>
          </mxGeometry>
        </mxCell>
        <mxCell id="Jm3S8WH3au0bVHizz8CZ-67" value="" style="endArrow=none;html=1;rounded=0;entryX=0.476;entryY=-0.007;entryDx=0;entryDy=0;entryPerimeter=0;exitX=0.431;exitY=0.997;exitDx=0;exitDy=0;exitPerimeter=0;" parent="1" edge="1" source="Jm3S8WH3au0bVHizz8CZ-70">
          <mxGeometry width="50" height="50" relative="1" as="geometry">
            <mxPoint x="523.1099999999999" y="347.66740000000004" as="sourcePoint" />
            <mxPoint x="609.79" y="198.22000000000003" as="targetPoint" />
            <Array as="points">
              <mxPoint x="570" y="320" />
              <mxPoint x="570" y="200" />
            </Array>
          </mxGeometry>
        </mxCell>
        <mxCell id="Jm3S8WH3au0bVHizz8CZ-69" value="" style="image;sketch=0;aspect=fixed;html=1;points=[];align=center;fontSize=12;image=img/lib/mscae/Key.svg;rotation=90;" parent="1" vertex="1">
          <mxGeometry x="620.35" y="190" width="9.3" height="15" as="geometry" />
        </mxCell>
        <mxCell id="Jm3S8WH3au0bVHizz8CZ-70" value="8" style="text;html=1;align=center;verticalAlign=middle;resizable=0;points=[];autosize=1;strokeColor=none;fillColor=none;rotation=-90;" parent="1" vertex="1">
          <mxGeometry x="499.65000000000003" y="302.50000000000006" width="30" height="30" as="geometry" />
        </mxCell>
        <mxCell id="Jm3S8WH3au0bVHizz8CZ-71" value="8" style="text;html=1;align=center;verticalAlign=middle;resizable=0;points=[];autosize=1;strokeColor=none;fillColor=none;rotation=-90;" parent="1" vertex="1">
          <mxGeometry x="499.65" y="332.50000000000006" width="30" height="30" as="geometry" />
        </mxCell>
        <mxCell id="Jm3S8WH3au0bVHizz8CZ-72" value="" style="image;sketch=0;aspect=fixed;html=1;points=[];align=center;fontSize=12;image=img/lib/mscae/Key.svg;rotation=90;" parent="1" vertex="1">
          <mxGeometry x="620.35" y="400" width="9.3" height="15" as="geometry" />
        </mxCell>
        <mxCell id="Jm3S8WH3au0bVHizz8CZ-75" value="timeinfo" style="swimlane;whiteSpace=wrap;html=1;" parent="1" vertex="1">
          <mxGeometry x="384" y="440" width="146" height="310" as="geometry" />
        </mxCell>
        <mxCell id="Jm3S8WH3au0bVHizz8CZ-76" value="&lt;blockquote style=&quot;margin: 0 0 0 40px; border: none; padding: 0px;&quot;&gt;t_year&lt;/blockquote&gt;" style="text;html=1;strokeColor=none;fillColor=none;align=left;verticalAlign=middle;whiteSpace=wrap;rounded=0;" parent="Jm3S8WH3au0bVHizz8CZ-75" vertex="1">
          <mxGeometry y="52.5" width="130" height="30" as="geometry" />
        </mxCell>
        <mxCell id="Jm3S8WH3au0bVHizz8CZ-77" value="&lt;blockquote style=&quot;margin: 0 0 0 40px; border: none; padding: 0px;&quot;&gt;t_month&lt;/blockquote&gt;" style="text;html=1;strokeColor=none;fillColor=none;align=left;verticalAlign=middle;whiteSpace=wrap;rounded=0;" parent="Jm3S8WH3au0bVHizz8CZ-75" vertex="1">
          <mxGeometry y="80" width="130" height="30" as="geometry" />
        </mxCell>
        <mxCell id="Jm3S8WH3au0bVHizz8CZ-78" value="&lt;blockquote style=&quot;margin: 0 0 0 40px; border: none; padding: 0px;&quot;&gt;t_hour&lt;/blockquote&gt;" style="text;html=1;strokeColor=none;fillColor=none;align=left;verticalAlign=middle;whiteSpace=wrap;rounded=0;" parent="Jm3S8WH3au0bVHizz8CZ-75" vertex="1">
          <mxGeometry y="140" width="130" height="30" as="geometry" />
        </mxCell>
        <mxCell id="Jm3S8WH3au0bVHizz8CZ-80" value="&lt;blockquote style=&quot;margin: 0 0 0 40px; border: none; padding: 0px;&quot;&gt;t_quarter&lt;/blockquote&gt;" style="text;html=1;strokeColor=none;fillColor=none;align=left;verticalAlign=middle;whiteSpace=wrap;rounded=0;" parent="Jm3S8WH3au0bVHizz8CZ-75" vertex="1">
          <mxGeometry y="170" width="130" height="30" as="geometry" />
        </mxCell>
        <mxCell id="Jm3S8WH3au0bVHizz8CZ-81" value="&lt;blockquote style=&quot;margin: 0 0 0 40px; border: none; padding: 0px;&quot;&gt;t_weel&lt;/blockquote&gt;" style="text;html=1;strokeColor=none;fillColor=none;align=left;verticalAlign=middle;whiteSpace=wrap;rounded=0;" parent="Jm3S8WH3au0bVHizz8CZ-75" vertex="1">
          <mxGeometry y="200" width="130" height="30" as="geometry" />
        </mxCell>
        <mxCell id="Jm3S8WH3au0bVHizz8CZ-83" value="&lt;blockquote style=&quot;margin: 0 0 0 40px; border: none; padding: 0px;&quot;&gt;time_key&lt;/blockquote&gt;" style="text;html=1;strokeColor=none;fillColor=none;align=left;verticalAlign=middle;whiteSpace=wrap;rounded=0;" parent="Jm3S8WH3au0bVHizz8CZ-75" vertex="1">
          <mxGeometry y="22.5" width="130" height="30" as="geometry" />
        </mxCell>
        <mxCell id="Jm3S8WH3au0bVHizz8CZ-84" value="" style="image;sketch=0;aspect=fixed;html=1;points=[];align=center;fontSize=12;image=img/lib/mscae/Key.svg;" parent="Jm3S8WH3au0bVHizz8CZ-75" vertex="1">
          <mxGeometry x="20" y="30" width="9.3" height="15" as="geometry" />
        </mxCell>
        <mxCell id="Jm3S8WH3au0bVHizz8CZ-90" value="&lt;blockquote style=&quot;margin: 0 0 0 40px; border: none; padding: 0px;&quot;&gt;t_dayofweek&lt;/blockquote&gt;" style="text;html=1;strokeColor=none;fillColor=none;align=left;verticalAlign=middle;whiteSpace=wrap;rounded=0;" parent="Jm3S8WH3au0bVHizz8CZ-75" vertex="1">
          <mxGeometry y="260" width="130" height="30" as="geometry" />
        </mxCell>
        <mxCell id="Jm3S8WH3au0bVHizz8CZ-92" value="&lt;blockquote style=&quot;margin: 0 0 0 40px; border: none; padding: 0px;&quot;&gt;t_dayofmonth&lt;/blockquote&gt;" style="text;html=1;strokeColor=none;fillColor=none;align=left;verticalAlign=middle;whiteSpace=wrap;rounded=0;" parent="Jm3S8WH3au0bVHizz8CZ-75" vertex="1">
          <mxGeometry y="110" width="130" height="30" as="geometry" />
        </mxCell>
        <mxCell id="Jm3S8WH3au0bVHizz8CZ-89" value="&lt;blockquote style=&quot;margin: 0 0 0 40px; border: none; padding: 0px;&quot;&gt;t_dayofyear&lt;/blockquote&gt;" style="text;html=1;strokeColor=none;fillColor=none;align=left;verticalAlign=middle;whiteSpace=wrap;rounded=0;" parent="Jm3S8WH3au0bVHizz8CZ-75" vertex="1">
          <mxGeometry y="230" width="130" height="30" as="geometry" />
        </mxCell>
        <mxCell id="Jm3S8WH3au0bVHizz8CZ-87" value="8" style="text;html=1;align=center;verticalAlign=middle;resizable=0;points=[];autosize=1;strokeColor=none;fillColor=none;rotation=-90;" parent="1" vertex="1">
          <mxGeometry x="350" y="272.5" width="30" height="30" as="geometry" />
        </mxCell>
        <mxCell id="Jm3S8WH3au0bVHizz8CZ-93" value="" style="image;sketch=0;aspect=fixed;html=1;points=[];align=center;fontSize=12;image=img/lib/mscae/Key.svg;rotation=90;" parent="1" vertex="1">
          <mxGeometry x="360.35" y="470" width="9.3" height="15" as="geometry" />
        </mxCell>
        <mxCell id="Jm3S8WH3au0bVHizz8CZ-94" value="" style="endArrow=none;html=1;rounded=0;entryX=0.557;entryY=-0.113;entryDx=0;entryDy=0;entryPerimeter=0;" parent="1" target="Jm3S8WH3au0bVHizz8CZ-87" edge="1">
          <mxGeometry width="50" height="50" relative="1" as="geometry">
            <mxPoint x="340" y="480" as="sourcePoint" />
            <mxPoint x="580" y="400" as="targetPoint" />
            <Array as="points">
              <mxPoint x="320" y="480" />
              <mxPoint x="320" y="286" />
            </Array>
          </mxGeometry>
        </mxCell>
      </root>
    </mxGraphModel>
  </diagram>
</mxfile>
